<svg width="59" height="59" viewBox="0 0 59 59" fill="none" xmlns="http://www.w3.org/2000/svg">
<path d="M19.9062 35.4795C19.9062 40.6404 28.272 44.8232 38.5937 44.8232C48.9155 44.8232 57.2812 40.6404 57.2812 35.4795C57.2812 30.3186 48.9155 26.1357 38.5937 26.1357C28.272 26.1357 19.9062 30.3186 19.9062 35.4795Z" stroke="white" stroke-width="2.4375" stroke-linecap="round" stroke-linejoin="round"/>
<path d="M19.9062 35.4792V47.9375C19.9062 53.0952 28.272 57.2812 38.5937 57.2812C48.9155 57.2812 57.2812 53.0952 57.2812 47.9375V35.4792M1.21875 10.5625C1.21875 13.9013 4.78183 16.9848 10.5625 18.6542C16.3432 20.3236 23.4693 20.3236 29.25 18.6542C35.0307 16.9848 38.5937 13.9013 38.5937 10.5625C38.5937 7.22367 35.0307 4.14023 29.25 2.47081C23.4693 0.801396 16.3432 0.801396 10.5625 2.47081C4.78183 4.14023 1.21875 7.22367 1.21875 10.5625Z" stroke="white" stroke-width="2.4375" stroke-linecap="round" stroke-linejoin="round"/>
<path d="M1.21875 10.5625V41.7083C1.21875 44.4741 3.62321 46.2245 7.44792 47.9375" stroke="white" stroke-width="2.4375" stroke-linecap="round" stroke-linejoin="round"/>
<path d="M1.21875 26.1357C1.21875 28.9015 3.62321 30.6519 7.44792 32.3649" stroke="white" stroke-width="2.4375" stroke-linecap="round" stroke-linejoin="round"/>
</svg>
