<svg width="29" height="29" viewBox="0 0 29 29" fill="none" xmlns="http://www.w3.org/2000/svg">
<g clip-path="url(#clip0_2_102)">
<path d="M10.1024 0.953999C7.20481 1.95919 4.70596 3.86706 2.97287 6.39739C1.23977 8.92772 0.363774 11.9471 0.473546 15.0121C0.583317 18.0771 1.67307 21.0261 3.58274 23.426C5.49241 25.8259 8.12134 27.5501 11.0834 28.3454C13.4848 28.965 16.0007 28.9923 18.4149 28.4247C20.602 27.9334 22.624 26.8826 24.2829 25.3752C26.0095 23.7583 27.2627 21.7014 27.9079 19.4256C28.6092 16.9508 28.7339 14.3482 28.2727 11.8177H14.7877V17.4115H22.5973C22.4412 18.3037 22.1067 19.1552 21.6139 19.9151C21.121 20.675 20.48 21.3276 19.729 21.834C18.7754 22.4648 17.7003 22.8893 16.573 23.0801C15.4423 23.2903 14.2826 23.2903 13.1519 23.0801C12.0059 22.8432 10.9218 22.3702 9.96868 21.6913C8.43746 20.6074 7.28772 19.0675 6.68353 17.2914C6.06912 15.4821 6.06912 13.5205 6.68353 11.7112C7.1136 10.4429 7.82457 9.28818 8.76337 8.33314C9.83771 7.22014 11.1979 6.42457 12.6946 6.0337C14.1913 5.64284 15.7668 5.67178 17.2481 6.11736C18.4053 6.47259 19.4636 7.09325 20.3384 7.92986C21.219 7.05382 22.0981 6.17551 22.9756 5.29494C23.4288 4.82142 23.9227 4.37056 24.369 3.88572C23.0336 2.64297 21.466 1.67596 19.7562 1.04009C16.6425 -0.0904768 13.2357 -0.12086 10.1024 0.953999Z" fill="white"/>
<path d="M10.1026 0.953635C13.2356 -0.121954 16.6425 -0.0923709 19.7564 1.03746C21.4666 1.67765 23.0334 2.64932 24.367 3.89668C23.9138 4.38153 23.4358 4.83465 22.9736 5.3059C22.0945 6.18345 21.2162 7.05798 20.3387 7.92949C19.4638 7.09288 18.4056 6.47223 17.2484 6.11699C15.7675 5.66985 14.1921 5.63924 12.695 6.0285C11.1978 6.41777 9.83687 7.21188 8.76135 8.32371C7.82255 9.27876 7.11158 10.4335 6.6815 11.7018L1.98486 8.06543C3.66598 4.7317 6.57672 2.18166 10.1026 0.953635Z" fill="#E33629"/>
<path d="M0.738451 11.6678C0.990889 10.4167 1.40999 9.2051 1.98454 8.06543L6.68118 11.7108C6.06678 13.5202 6.06678 15.4817 6.68118 17.2911C5.11639 18.4994 3.55085 19.7138 1.98454 20.9342C0.546214 18.0711 0.107548 14.8091 0.738451 11.6678Z" fill="#F8BD00"/>
<path d="M14.7876 11.8154H28.2726C28.7339 14.346 28.6091 16.9486 27.9079 19.4234C27.2627 21.6992 26.0094 23.7561 24.2829 25.3729C22.7672 24.1903 21.2447 23.0167 19.729 21.834C20.4804 21.3272 21.1218 20.6738 21.6147 19.9131C22.1075 19.1524 22.4417 18.3 22.5972 17.407H14.7876C14.7854 15.5446 14.7876 13.68 14.7876 11.8154Z" fill="#587DBD"/>
<path d="M1.98242 20.9341C3.54872 19.7258 5.11427 18.5114 6.67906 17.291C7.28445 19.0677 8.43584 20.6077 9.96875 21.6909C10.9249 22.3666 12.0113 22.8357 13.1588 23.0684C14.2894 23.2786 15.4492 23.2786 16.5798 23.0684C17.7072 22.8775 18.7822 22.4531 19.7359 21.8223C21.2516 23.0049 22.7741 24.1785 24.2898 25.3612C22.6311 26.8695 20.6091 27.9211 18.4218 28.413C16.0076 28.9805 13.4916 28.9533 11.0902 28.3337C9.19097 27.8266 7.41692 26.9326 5.8793 25.7078C4.25181 24.4157 2.92255 22.7874 1.98242 20.9341Z" fill="#319F43"/>
</g>
<defs>
<clipPath id="clip0_2_102">
<rect width="29" height="29" fill="white"/>
</clipPath>
</defs>
</svg>
