<svg width="24" height="24" viewBox="0 0 24 24" fill="none" xmlns="http://www.w3.org/2000/svg">
<path d="M10.47 8.46983C10.6106 8.32938 10.8012 8.25049 11 8.25049C11.1988 8.25049 11.3894 8.32938 11.53 8.46983L14.53 11.4698C14.6705 11.6105 14.7493 11.8011 14.7493 11.9998C14.7493 12.1986 14.6705 12.3892 14.53 12.5298L11.53 15.5298C11.4613 15.6035 11.3785 15.6626 11.2865 15.7036C11.1945 15.7446 11.0952 15.7666 10.9945 15.7684C10.8938 15.7702 10.7938 15.7517 10.7004 15.714C10.607 15.6762 10.5222 15.6201 10.451 15.5489C10.3797 15.4776 10.3236 15.3928 10.2859 15.2994C10.2482 15.206 10.2296 15.106 10.2314 15.0053C10.2332 14.9046 10.2552 14.8053 10.2962 14.7133C10.3372 14.6213 10.3963 14.5385 10.47 14.4698L12.19 12.7498H4C3.80109 12.7498 3.61032 12.6708 3.46967 12.5302C3.32902 12.3895 3.25 12.1987 3.25 11.9998C3.25 11.8009 3.32902 11.6102 3.46967 11.4695C3.61032 11.3288 3.80109 11.2498 4 11.2498H12.19L10.47 9.52983C10.3295 9.3892 10.2507 9.19858 10.2507 8.99983C10.2507 8.80108 10.3295 8.61045 10.47 8.46983Z" fill="white"/>
<path d="M11.768 3.25H14.232C15.045 3.25 15.701 3.25 16.232 3.293C16.778 3.338 17.258 3.433 17.702 3.659C18.4081 4.01837 18.9822 4.59214 19.342 5.298C19.568 5.742 19.662 6.222 19.707 6.768C19.75 7.299 19.75 7.955 19.75 8.768V15.232C19.75 16.045 19.75 16.701 19.707 17.232C19.662 17.778 19.567 18.258 19.341 18.702C18.9816 19.4081 18.4079 19.9822 17.702 20.342C17.258 20.568 16.778 20.662 16.232 20.707C15.701 20.75 15.045 20.75 14.232 20.75H11.768C10.955 20.75 10.299 20.75 9.768 20.707C9.222 20.662 8.742 20.567 8.298 20.341C7.59192 19.9816 7.0178 19.4079 6.658 18.702C6.432 18.258 6.338 17.778 6.293 17.232C6.25 16.701 6.25 16.045 6.25 15.232V15C6.25 14.8011 6.32902 14.6103 6.46967 14.4697C6.61032 14.329 6.80109 14.25 7 14.25C7.19891 14.25 7.38968 14.329 7.53033 14.4697C7.67098 14.6103 7.75 14.8011 7.75 15V15.2C7.75 16.052 7.75 16.647 7.788 17.11C7.825 17.563 7.895 17.824 7.995 18.022C8.211 18.445 8.555 18.789 8.979 19.005C9.176 19.105 9.437 19.175 9.891 19.212C10.353 19.249 10.947 19.25 11.8 19.25H14.2C15.053 19.25 15.647 19.25 16.11 19.212C16.563 19.174 16.824 19.105 17.022 19.005C17.4452 18.7893 17.7893 18.4452 18.005 18.022C18.105 17.824 18.175 17.563 18.212 17.109C18.249 16.647 18.25 16.052 18.25 15.2V8.8C18.25 7.948 18.25 7.353 18.212 6.89C18.174 6.437 18.105 6.176 18.005 5.979C17.7895 5.55541 17.4454 5.21095 17.022 4.995C16.824 4.895 16.563 4.825 16.109 4.788C15.647 4.751 15.052 4.75 14.2 4.75H11.8C10.947 4.75 10.353 4.75 9.89 4.788C9.437 4.825 9.176 4.895 8.979 4.995C8.55526 5.21078 8.21078 5.55526 7.995 5.979C7.895 6.176 7.825 6.437 7.788 6.891C7.751 7.353 7.75 7.948 7.75 8.8V9C7.75 9.19891 7.67098 9.38968 7.53033 9.53033C7.38968 9.67098 7.19891 9.75 7 9.75C6.80109 9.75 6.61032 9.67098 6.46967 9.53033C6.32902 9.38968 6.25 9.19891 6.25 9V8.768C6.25 7.955 6.25 7.299 6.293 6.768C6.338 6.222 6.433 5.742 6.659 5.298C7.01837 4.59192 7.59214 4.0178 8.298 3.658C8.742 3.432 9.222 3.338 9.768 3.293C10.299 3.25 10.955 3.25 11.768 3.25Z" fill="white"/>
</svg>
